<svg width="32" height="32" viewBox="0 0 32 32" fill="none" xmlns="http://www.w3.org/2000/svg">
<path fill-rule="evenodd" clip-rule="evenodd" d="M26.3333 15.9999C26.3333 15.4476 25.8856 14.9999 25.3333 14.9999H6.66663C6.11434 14.9999 5.66663 15.4476 5.66663 15.9999C5.66663 16.5522 6.11434 16.9999 6.66663 16.9999H25.3333C25.8856 16.9999 26.3333 16.5522 26.3333 15.9999Z" fill="white"/>
<path fill-rule="evenodd" clip-rule="evenodd" d="M26.3333 9.33325C26.3333 8.78097 25.8856 8.33325 25.3333 8.33325H6.66663C6.11434 8.33325 5.66663 8.78097 5.66663 9.33325C5.66663 9.88554 6.11434 10.3333 6.66663 10.3333H25.3333C25.8856 10.3333 26.3333 9.88554 26.3333 9.33325Z" fill="white"/>
<path fill-rule="evenodd" clip-rule="evenodd" d="M26.3333 22.6666C26.3333 22.1143 25.8856 21.6666 25.3333 21.6666H6.66663C6.11434 21.6666 5.66663 22.1143 5.66663 22.6666C5.66663 23.2189 6.11434 23.6666 6.66663 23.6666H25.3333C25.8856 23.6666 26.3333 23.2189 26.3333 22.6666Z" fill="white"/>
</svg>
