<svg width="24" height="24" viewBox="0 0 24 24" fill="none" xmlns="http://www.w3.org/2000/svg">
<path d="M9.64183 9.06153C9.84912 8.47226 10.2583 7.97537 10.7968 7.65887C11.3354 7.34236 11.9685 7.22666 12.5842 7.33227C13.1999 7.43787 13.7583 7.75796 14.1606 8.23584C14.5629 8.71373 14.783 9.31856 14.7821 9.94322C14.7821 11.7066 12.137 12.5883 12.137 12.5883M12.1711 16.1177H12.1829M22 12C22 17.5228 17.5228 22 12 22C6.47715 22 2 17.5228 2 12C2 6.47715 6.47715 2 12 2C17.5228 2 22 6.47715 22 12Z" stroke="#2772F5" stroke-width="2" stroke-linecap="round" stroke-linejoin="round"/>
</svg>
